.
..............................Site Info...........................

 -   http://www.scenetime.com  *_*   

SceneTime is going to Close sign up on march/1, hurry up! get in before the doors are closed.

     We care to share . Join us on  http://www.scenetime.com 

    Be the first to get new release at  http://www.scenetime.com

        Seed back for speed


...................................NFO:.................................................[center][IMG]http://lookpic.com/O/i2/1711/wUxrWQX4.jpeg[/IMG][/center]
[center][color=green]Crushed 2009 DVDRip x264 AC3 - konscious[/color][/center]


[img]http://lookpic.com/i/595/WZpBR7F1.png[/img]
[nfo][font=Courier New]


Complete name                    : Crushed 2009 DVDRip x264 AC3 - konscious.mkv
Format                           : Matroska
Format version                   : Version 2
File size                        : 1.30 GiB
Duration                         : 1h 25mn
Overall bit rate                 : 2 186 Kbps
Encoded date                     : UTC 2012-02-29 02:06:33
Writing application              : mkvmerge v5.2.1 ('A Far Off Place') 
Writing library                  : libebml v1.2.3 + libmatroska v1.3.0
Source                           : DVD5 NTSC
Sample                           : Yes
Encoder                          : [color=darkturquoise]konscious[/color]

[url]http://www.imdb.com/title/tt1192621/[/url]


Genre:    Horror | Thriller   

[color=green]Video[/color]

Format                           : AVC
Format/Info                      : Advanced Video Codec
Format profile                   : High@L4.1
Format settings, CABAC           : Yes
Format settings, ReFrames        : 3 frames
Format settings, GOP             : N=1
Codec ID                         : V_MPEG4/ISO/AVC
Duration                         : 1h 25mn
Bit rate                         : 1 737 Kbps
Width                            : 720 pixels
Height                           : 304 pixels
Display aspect ratio             : 2.35:1
Frame rate                       : 23.976 fps
Color space                      : YUV
Chroma subsampling               : 4:2:0
Bit depth                        : 8 bits
Scan type                        : Progressive
Bits/(Pixel*Frame)               : 0.331
Stream size                      : 1.01 GiB (78%)
Writing library                  : x264 core 120 r2164 da19765

[color=green]Audio[/color]

Format                           : AC-3
Format/Info                      : Audio Coding 3
Mode extension                   : CM (complete main)
Codec ID                         : A_AC3
Duration                         : 1h 25mn
Bit rate mode                    : Constant
Bit rate                         : 448 Kbps
Channel(s)                       : 5 channels
Channel positions                : Front: L C R, Side: L R
Sampling rate                    : 48.0 KHz
Bit depth                        : 16 bits
Compression mode                 : Lossy
Stream size                      : 272 MiB (20%)




[cast]
Natalie Dickinson 		... 	Tara
Henrik Norln 			... 	Ray
Robert Paschall Jr. 	 	... 	Phillip
Caitlin Wehrle 	Caitlin Wehrle 	... 	Maddy  

[plot]
Love can be painful. Very painful. The intriguing-on-the-outside, 
twisted-and-tortured-on-the-inside Tara sets her sights on the 
unassuming guy-next-door Ray.

[note]
[color=red]
Dont forget to thank the uploader/add rep

Greets to: DiVERSiTY RG, warhawk, tinners, 
and all who make p2p what it is today.[/color]




[screens]
[center]
[IMG]http://lookpic.com/O/i2/1524/kRu4Hxg7.png[/IMG]
[IMG]http://lookpic.com/O/i2/1471/15db2bF5.png[/IMG]
[IMG]http://lookpic.com/O/i2/1722/9GjxwDTH.png[/IMG]
[IMG]http://lookpic.com/O/i2/110/dEHa0hdx.png[/IMG]

[/center]



[trailer]


[/nfo][/font]